<svg xmlns="http://www.w3.org/2000/svg" width="440" height="290" viewBox="0 0 440 290">
<defs>
 <linearGradient id="face" x1="0" y1="0" x2="1" y2="1"><stop offset="0" stop-color="#1b2a38"/><stop offset="1" stop-color="#0b131b"/></linearGradient>
 <linearGradient id="edge" x1="0" y1="0" x2="1" y2="0"><stop offset="0" stop-color="#ff9900"/><stop offset="1" stop-color="#ff3d71"/></linearGradient>
 <linearGradient id="side" x1="0" y1="0" x2="1" y2="1"><stop offset="0" stop-color="#ff9900" stop-opacity=".95"/><stop offset="1" stop-color="#ff3d71" stop-opacity=".55"/></linearGradient>
 <linearGradient id="gloss" x1="0" y1="0" x2="0" y2="1"><stop offset="0" stop-color="#fff" stop-opacity=".16"/><stop offset="1" stop-color="#fff" stop-opacity="0"/></linearGradient>
 <filter id="blur" x="-20%" y="-20%" width="140%" height="160%"><feGaussianBlur stdDeviation="9"/></filter>
</defs>
<style>
 .float{animation:fl 4s ease-in-out infinite}
 @keyframes fl{0%,100%{transform:translateY(0)}50%{transform:translateY(-7px)}}
</style>
<ellipse cx="228.0" cy="274" rx="165" ry="12" fill="#000" opacity=".55" filter="url(#blur)"/>
<g class="float">
 <!-- 3D extrusion: bottom and right faces -->
 <polygon points="30,238 396,238 412,254 46,254" fill="#ff9900" opacity=".75"/>
 <polygon points="396,26 412,42 412,254 396,238" fill="url(#side)"/>
 <polygon points="30,238 396,238 412,254 46,254" fill="#000" opacity=".25"/>
 <!-- front face -->
 <rect x="30" y="26" width="366" height="212" rx="16" fill="url(#face)" stroke="url(#edge)" stroke-width="2"/>
 <rect x="30" y="26" width="366" height="100" rx="16" fill="url(#gloss)"/>
 <text x="34" y="64" font-size="26" font-family="Segoe UI Emoji,Apple Color Emoji,sans-serif">🎓</text>
 <text x="72" y="62" font-size="21" font-weight="700" fill="#ffffff" font-family="Segoe UI,Arial,sans-serif">Student Performance</text>
 <text x="72" y="81" font-size="12" fill="#ff3d71" font-family="Consolas,Menlo,monospace">End-to-End ML on AWS</text>
 <text x="34" y="150" font-size="48" font-weight="800" fill="url(#edge)" font-family="Segoe UI,Arial,sans-serif" stroke="#ff3d71" stroke-opacity=".25">8</text>
 <text x="36" y="170" font-size="13" fill="#9fb3c4" font-family="Segoe UI,Arial,sans-serif">regression models tuned</text>
 <text x="36" y="196" font-size="12.5" fill="#d6e4ef" font-family="Segoe UI,Arial,sans-serif">5-step GitHub Actions deployment pipeline</text>
 <rect x="34" y="212" width="94" height="22" rx="11" fill="#ffffff" fill-opacity=".10" stroke="#ff3d71" stroke-opacity=".6"/><text x="81" y="227" text-anchor="middle" font-size="11" fill="#e8f7ff" font-family="Segoe UI,Arial,sans-serif">Scikit-learn</text><rect x="134.0" y="212" width="55" height="22" rx="11" fill="#ffffff" fill-opacity=".10" stroke="#ff3d71" stroke-opacity=".6"/><text x="162" y="227" text-anchor="middle" font-size="11" fill="#e8f7ff" font-family="Segoe UI,Arial,sans-serif">Docker</text><rect x="195.0" y="212" width="62" height="22" rx="11" fill="#ffffff" fill-opacity=".10" stroke="#ff3d71" stroke-opacity=".6"/><text x="226" y="227" text-anchor="middle" font-size="11" fill="#e8f7ff" font-family="Segoe UI,Arial,sans-serif">AWS ECS</text><rect x="262.5" y="212" width="48" height="22" rx="11" fill="#ffffff" fill-opacity=".10" stroke="#ff3d71" stroke-opacity=".6"/><text x="287" y="227" text-anchor="middle" font-size="11" fill="#e8f7ff" font-family="Segoe UI,Arial,sans-serif">CI/CD</text>
</g>
</svg>